<?xml version="1.0" standalone="no"?>
<!DOCTYPE svg PUBLIC "-//W3C//DTD SVG 20010904//EN"
 "http://www.w3.org/TR/2001/REC-SVG-20010904/DTD/svg10.dtd">
<svg version="1.0" xmlns="http://www.w3.org/2000/svg"
 width="260.000000pt" height="260.000000pt" viewBox="0 0 260.000000 260.000000"
 preserveAspectRatio="xMidYMid meet">
<metadata>
Created by potrace 1.11, written by Peter Selinger 2001-2013
</metadata>
<g transform="translate(0.000000,260.000000) scale(0.100000,-0.100000)"
fill="#000000" stroke="none">
<path d="M2 1298 l3 -1303 2 1297 3 1298 1298 3 1297 2 -1302 3 -1303 2 2
-1302z"/>
<path d="M160 1290 l0 -1150 1150 0 1150 0 0 1150 0 1150 -1150 0 -1150 0 0
-1150z m1125 1005 l0 -80 -70 -6 c-86 -7 -132 -29 -151 -74 -34 -82 -20 -124
164 -498 83 -166 167 -345 187 -397 21 -52 40 -97 41 -99 2 -2 13 18 25 45 11
27 27 63 35 81 8 17 14 33 14 36 0 3 45 99 101 214 197 405 209 433 221 502
10 60 9 71 -8 106 -31 63 -60 77 -166 84 l-93 6 0 80 0 80 400 0 400 0 0 -80
0 -80 -60 -5 c-34 -3 -73 -13 -88 -23 -41 -27 -53 -48 -299 -527 -251 -487
-294 -570 -330 -639 l-39 -74 3 -251 c3 -217 5 -255 21 -283 28 -52 67 -66
195 -71 l113 -5 -3 -76 -3 -76 -567 -3 -568 -2 0 79 0 78 108 5 c117 5 153 17
186 61 20 27 21 43 24 292 l3 265 -59 112 c-33 62 -99 190 -147 283 -48 94
-107 206 -130 250 -23 44 -91 175 -150 290 -60 116 -122 227 -138 249 -37 47
-80 66 -147 66 l-50 0 0 85 0 85 513 -2 512 -3 0 -80z"/>
</g>
</svg>
